:version 1.10
:name ASF
:units
  mass 1
  length 1
  angle deg
:documentation
  ASF file generated by Kaydara
:root
  axis xyz
  order  tx ty tz rx ry rz
  position 0 0 0
  orientation 0 0 0
:bonedata
  begin
    id 1
    name RightUpLegDummy
    direction -1 2.30186e-007 8.31532e-007
    length 4.46685
    axis 0 0 0 xyz
  end
  begin
    id 2
    name RightUpLeg
    direction -2.30187e-007 -1 1.24343e-010
    length 16.4045
    axis -3.49089 -0.000906625 0.000286804 xyz
    dof rx ry rz
  end
  begin
    id 3
    name RightLeg
    direction -2.30181e-007 -1 -4.17157e-009
    length 17.5097
    axis 3.68512 0.0193738 -0.131023 xyz
    dof rx ry rz
  end
  begin
    id 4
    name RightFoot
    direction 8.31421e-007 -4.51202e-011 1
    length 6.49508
    axis 4.81691e-005 -0.120479 -0.188788 xyz
    dof rx ry rz
  end
  begin
    id 5
    name RightToes
    direction 0.00124746 -0.014064 0.9999
    length 3.85082
    axis 0.000481921 0.542163 -0.142578 xyz
    dof rx ry rz
  end
  begin
    id 6
    name SpineDummy
    direction 0.0717043 0.9409 -0.331007
    length 10.0032
    axis 0 0 0 xyz
  end
  begin
    id 7
    name Spine
    direction 2.30186e-007 1 4.58806e-011
    length 9.84055
    axis -0.001389 0.000121418 2.40972e-006 xyz
    dof rx ry rz
  end
  begin
    id 8
    name Spine1
    direction 0 0 0
    length 0
    axis -0.001389 0.000121451 1.30017e-006 xyz
    dof rx ry rz
  end
  begin
    id 9
    name HEadDummy
    direction -0.00347485 0.950688 -0.310128
    length 8.00997
    axis -0.001389 0.000121451 1.30017e-006 xyz
  end
  begin
    id 10
    name HEad
    direction -0.0222688 0.980941 0.193023
    length 5.12695
    axis -0.001389 0.000121451 1.30017e-006 xyz
    dof rx ry rz
  end
  begin
    id 11
    name LeftShoulder1Dummy
    direction 0.988871 0.146793 -0.0242004
    length 3.5792
    axis -0.001389 0.000121451 1.30017e-006 xyz
  end
  begin
    id 12
    name LeftShoulder1
    direction 0.993832 0.108932 0.020779
    length 4.16823
    axis -0.001389 0.000121451 1.30017e-006 xyz
    dof rx ry rz
  end
  begin
    id 13
    name LeftArm
    direction 1 3.44807e-006 -8.31404e-007
    length 9.91437
    axis -23.1894 0.134784 0.967509 xyz
    dof rx ry rz
  end
  begin
    id 14
    name LeftForeArm
    direction 1 3.44842e-006 -8.31581e-007
    length 9.08575
    axis -9.91835 -0.06569 -0.177793 xyz
    dof rx ry rz
  end
  begin
    id 15
    name LeftHand
    direction 0.992938 -0.0411636 0.11126
    length 5.32135
    axis -0.00960232 -0.00340091 0.185173 xyz
    dof rx ry rz
  end
  begin
    id 16
    name RightShoulderDummy
    direction -0.988871 0.146793 -0.0241962
    length 3.5792
    axis -0.001389 0.000121451 1.30017e-006 xyz
  end
  begin
    id 17
    name RightShoulder
    direction -0.993832 0.108933 0.0207785
    length 4.16823
    axis 0.215806 0.000203643 -0.0068026 xyz
    dof rx ry rz
  end
  begin
    id 18
    name RightArm
    direction -1 3.90912e-006 8.31284e-007
    length 9.91437
    axis -23.2009 -0.134239 -0.964101 xyz
    dof rx ry rz
  end
  begin
    id 19
    name RightForeArm
    direction -1 3.90882e-006 8.31502e-007
    length 9.08575
    axis -9.92322 0.0658061 0.178867 xyz
    dof rx ry rz
  end
  begin
    id 20
    name RightHand
    direction -0.992843 -0.0414603 0.112003
    length 5.28593
    axis -0.00960638 0.00330671 -0.185228 xyz
    dof rx ry rz
  end
  begin
    id 21
    name LeftUpLegDummy
    direction 1 -2.30186e-007 -8.31532e-007
    length 4.46685
    axis 0 0 0 xyz
  end
  begin
    id 22
    name LeftUpLeg
    direction -2.30187e-007 -1 6.00931e-010
    length 16.4045
    axis -3.48766 0.00143442 -0.000524262 xyz
    dof rx ry rz
  end
  begin
    id 23
    name LeftLeg
    direction -2.30187e-007 -1 1.6669e-009
    length 17.5097
    axis 3.68178 -0.00654042 -0.000285133 xyz
    dof rx ry rz
  end
  begin
    id 24
    name LeftFoot
    direction 8.31532e-007 -4.54478e-011 1
    length 6.49508
    axis 1.87233e-006 4.66016e-005 -8.6538e-006 xyz
    dof rx ry rz
  end
  begin
    id 25
    name LeftToes
    direction 0.00818058 -0.00485161 0.999955
    length 3.85048
    axis 1.06247e-005 4.65869e-005 -8.65513e-006 xyz
    dof rx ry rz
  end
:hierarchy
  begin
    root RightUpLegDummy SpineDummy LeftUpLegDummy
    RightUpLegDummy RightUpLeg
    RightUpLeg RightLeg
    RightLeg RightFoot
    RightFoot RightToes
    SpineDummy Spine
    Spine Spine1
    Spine1 HEadDummy LeftShoulder1Dummy RightShoulderDummy
    HEadDummy HEad
    LeftShoulder1Dummy LeftShoulder1
    LeftShoulder1 LeftArm
    LeftArm LeftForeArm
    LeftForeArm LeftHand
    RightShoulderDummy RightShoulder
    RightShoulder RightArm
    RightArm RightForeArm
    RightForeArm RightHand
    LeftUpLegDummy LeftUpLeg
    LeftUpLeg LeftLeg
    LeftLeg LeftFoot
    LeftFoot LeftToes
  end

:SAMPLES-PER-SECOND 30
:FULLY-SPECIFIED
:DEGREES
107
root  40.4027 33.5553 -65.8124 0.527971 -48.9589 0.0542522
RightUpLeg  -7.55297 0.933602 0.523779
RightLeg  16.6285 -5.99576 -1.37435
RightFoot  0.0016617 -0.00563127 -0.0303882
RightToes  -24.5049 -0.101386 -0.203917
Spine  5.077 -1.99661 0.24551
Spine1  9.38885 -3.86144 -0.134319
HEad  12.6958 2.00124 6.81472
LeftShoulder1  0 -2.42657e-020 -4.95415e-022
LeftArm  15.743 5.79232 -79.0216
LeftForeArm  48.0877 -70.4551 -29.9886
LeftHand  -0.0702443 -0.615754 12.4063
RightShoulder  0 2.42657e-020 1.07489e-018
RightArm  13.0765 -17.2463 65.6226
RightForeArm  150.655 76.8463 130.071
RightHand  -4.82929 14.1716 -37.1231
LeftUpLeg  -5.88493 4.9311 2.69725
LeftLeg  17.7678 -1.06411 -0.269077
LeftFoot  -1.77048 0.0120261 -0.035715
LeftToes  -13.5556 8.72033e-007 1.17809e-007
108
root  40.4021 33.555 -65.7947 0.52719 -48.946 0.059257
RightUpLeg  -7.55274 0.881804 0.489447
RightLeg  16.651 -5.94817 -1.36595
RightFoot  -0.0114676 -0.00640059 -0.0288811
RightToes  -24.5808 -0.100811 -0.203263
Spine  5.06647 -2.01246 0.258506
Spine1  9.36841 -3.89532 -0.108191
HEad  12.6254 2.00102 6.87652
LeftShoulder1  0 -2.42657e-020 -4.95415e-022
LeftArm  15.7277 5.85985 -79.0447
LeftForeArm  48.0805 -70.4445 -29.9691
LeftHand  -0.0737135 -0.648927 12.2863
RightShoulder  0 2.42657e-020 1.07489e-018
RightArm  13.1181 -17.3237 65.5802
RightForeArm  150.572 76.8346 130.132
RightHand  -4.85562 14.2358 -37.1536
LeftUpLeg  -5.87775 4.86045 2.66236
LeftLeg  17.7755 -1.00947 -0.255515
LeftFoot  -1.80105 0.0120148 -0.0365883
LeftToes  -13.5472 8.72033e-007 1.17809e-007
109
root  40.402 33.5545 -65.7756 0.513708 -48.9995 0.101846
RightUpLeg  -7.56968 0.867424 0.437295
RightLeg  16.6721 -5.88348 -1.35344
RightFoot  -0.0241261 -0.00718872 -0.027186
RightToes  -24.72 -0.100229 -0.202598
Spine  5.04713 -2.02806 0.271201
Spine1  9.3319 -3.92775 -0.0836518
HEad  12.5926 2.06678 6.89897
LeftShoulder1  0 -2.42657e-020 -4.95415e-022
LeftArm  15.7086 5.9879 -79.0427
LeftForeArm  48.1007 -70.4516 -29.9821
LeftHand  -0.0750327 -0.677139 12.2416
RightShoulder  0 2.42657e-020 1.07489e-018
RightArm  13.1871 -17.4033 65.5784
RightForeArm  150.359 76.8595 129.999
RightHand  -4.85451 14.2581 -37.0904
LeftUpLeg  -5.83045 4.81719 2.60393
LeftLeg  17.7095 -0.918451 -0.231536
LeftFoot  -1.79055 0.011991 -0.0374499
LeftToes  -13.6046 8.72033e-007 1.17809e-007
110
root  40.4023 33.5537 -65.7682 0.514981 -49.017 0.102117
RightUpLeg  -7.56614 0.909136 0.433161
RightLeg  16.6855 -5.9115 -1.36132
RightFoot  -0.0312971 -0.00799046 -0.025377
RightToes  -24.6873 -0.0996403 -0.201924
Spine  5.04475 -2.03245 0.274565
Spine1  9.32896 -3.93713 -0.0763747
HEad  12.5775 2.08268 6.95971
LeftShoulder1  0 -2.42657e-020 -4.95415e-022
LeftArm  15.7437 6.01488 -79.0224
LeftForeArm  48.022 -70.435 -29.9516
LeftHand  -0.0748842 -0.682486 12.2773
RightShoulder  0 2.42657e-020 1.07489e-018
RightArm  13.1906 -17.4577 65.6064
RightForeArm  150.282 76.8807 129.886
RightHand  -4.84931 14.2465 -37.0818
LeftUpLeg  -5.82871 4.8789 2.59137
LeftLeg  17.7256 -0.922581 -0.232845
LeftFoot  -1.81719 0.0119544 -0.0382914
LeftToes  -13.5865 8.72033e-007 1.17809e-007
111
root  40.4028 33.5525 -65.7589 0.514348 -49.036 0.107611
RightUpLeg  -7.56436 0.913424 0.417298
RightLeg  16.6883 -5.90154 -1.35935
RightFoot  -0.0512297 -0.00879791 -0.0235699
RightToes  -24.6714 -0.0990462 -0.201239
Spine  5.04464 -2.03508 0.281614
Spine1  9.32914 -3.94006 -0.0624849
HEad  12.5473 2.06763 6.99434
LeftShoulder1  0 -2.42657e-020 -4.95415e-022
LeftArm  15.7687 6.04897 -79.0088
LeftForeArm  48.0372 -70.4392 -29.9593
LeftHand  -0.0788524 -0.717715 12.2874
RightShoulder  0 2.42657e-020 1.07489e-018
RightArm  13.2306 -17.5054 65.5887
RightForeArm  150.353 76.8584 130.005
RightHand  -4.83724 14.2159 -37.0706
LeftUpLeg  -5.82629 4.91195 2.58185
LeftLeg  17.742 -0.946113 -0.23902
LeftFoot  -1.84988 0.0119049 -0.0391041
LeftToes  -13.5306 8.72033e-007 1.17809e-007
